<svg width="27" height="27" viewBox="0 0 27 27" fill="none" xmlns="http://www.w3.org/2000/svg">
<path d="M13.5018 25.9999C16.2753 25.9995 18.9699 25.0767 21.1614 23.3768C23.3528 21.6769 24.9167 19.2965 25.6068 16.6102C26.2969 13.924 26.074 11.0845 24.9733 8.5388C23.8725 5.99312 21.9563 3.88583 19.5264 2.54868C17.0966 1.21154 14.291 0.720483 11.5514 1.15283C8.81185 1.58517 6.29386 2.91636 4.39387 4.93682C2.49388 6.95728 1.3198 9.55225 1.05648 12.3132C0.793159 15.0742 1.45555 17.8443 2.93936 20.1875L1.00186 25.9999L6.81435 24.0625C8.81376 25.3314 11.1337 26.0036 13.5018 25.9999Z" fill="#0B40AC" stroke="#0B40AC" stroke-width="1.46321" stroke-linecap="round" stroke-linejoin="round"/>
<circle cx="13.5" cy="13.5" r="10.5769" fill="white"/>
<path d="M21.2793 15.1026H17.8639C17.4927 16.1719 16.7623 17.0731 15.8017 17.6469C14.8412 18.2207 13.7124 18.4303 12.6148 18.2385C11.5173 18.0467 10.5216 17.466 9.80384 16.5989C9.08606 15.7318 8.69238 14.6342 8.69238 13.5001C8.69238 12.366 9.08606 11.2684 9.80384 10.4013C10.5216 9.53417 11.5173 8.95341 12.6148 8.76163C13.7124 8.56985 14.8412 8.7794 15.8017 9.35324C16.7623 9.92708 17.4927 10.8283 17.8639 11.8975H26V15.1026H24.4265H21.2793ZM13.4114 15.1026C13.8288 15.1026 14.229 14.9338 14.5241 14.6332C14.8192 14.3327 14.985 13.9251 14.985 13.5001C14.985 13.075 14.8192 12.6674 14.5241 12.3669C14.229 12.0663 13.8288 11.8975 13.4114 11.8975C12.9941 11.8975 12.5938 12.0663 12.2987 12.3669C12.0036 12.6674 11.8378 13.075 11.8378 13.5001C11.8378 13.9251 12.0036 14.3327 12.2987 14.6332C12.5938 14.9338 12.9941 15.1026 13.4114 15.1026Z" fill="#0B40AC"/>
<circle cx="13.5" cy="13.5" r="9.8453" stroke="#0B40AC" stroke-width="1.46321" stroke-dasharray="0.73 0.73"/>
</svg>
