<svg width="46" height="46" viewBox="0 0 46 46" fill="none" xmlns="http://www.w3.org/2000/svg">
<rect width="46" height="46" rx="4" fill="white"/>
<path d="M23.6595 39.4286C27.4505 39.4281 31.1336 38.1667 34.1291 35.8432C37.1245 33.5197 39.2621 30.2659 40.2054 26.5942C41.1486 22.9224 40.844 19.0413 39.3394 15.5617C37.8347 12.0821 35.2156 9.20172 31.8943 7.37403C28.573 5.54635 24.7382 4.87514 20.9936 5.4661C17.249 6.05705 13.8072 7.8766 11.2102 10.6383C8.61321 13.4 7.00841 16.9469 6.64849 20.7208C6.28857 24.4946 7.19396 28.281 9.22212 31.4838L6.57384 39.4286L14.5187 36.7803C17.2516 38.5148 20.4227 39.4336 23.6595 39.4286Z" fill="#0B40AC" stroke="#0B40AC" stroke-width="2" stroke-linecap="round" stroke-linejoin="round"/>
<circle cx="23.6571" cy="22.3428" r="14.4571" fill="white"/>
<path d="M34.2903 24.5334H29.6218C29.1144 25.9949 28.1161 27.2267 26.8032 28.011C25.4903 28.7954 23.9473 29.0818 22.4471 28.8197C20.9469 28.5576 19.586 27.7637 18.6049 26.5785C17.6238 25.3933 17.0857 23.8931 17.0857 22.3429C17.0857 20.7927 17.6238 19.2925 18.6049 18.1073C19.586 16.9221 20.9469 16.1283 22.4471 15.8661C23.9473 15.604 25.4903 15.8904 26.8032 16.6748C28.1161 17.4591 29.1144 18.6909 29.6218 20.1524H40.7428V24.5334H38.592H34.2903ZM23.536 24.5334C24.1064 24.5334 24.6535 24.3026 25.0569 23.8918C25.4602 23.481 25.6868 22.9239 25.6868 22.3429C25.6868 21.762 25.4602 21.2048 25.0569 20.794C24.6535 20.3832 24.1064 20.1524 23.536 20.1524C22.9655 20.1524 22.4184 20.3832 22.0151 20.794C21.6117 21.2048 21.3851 21.762 21.3851 22.3429C21.3851 22.9239 21.6117 23.481 22.0151 23.8918C22.4184 24.3026 22.9655 24.5334 23.536 24.5334Z" fill="#0B40AC"/>
<circle cx="23.6571" cy="22.3428" r="13.4571" stroke="#0B40AC" stroke-width="2" stroke-dasharray="1 1"/>
</svg>
