<svg width="46" height="46" viewBox="0 0 46 46" fill="none" xmlns="http://www.w3.org/2000/svg">
<rect width="46" height="46" rx="4" fill="#0B40AC"/>
<path d="M23.6595 39.4285C27.4505 39.4279 31.1336 38.1666 34.1291 35.8431C37.1245 33.5195 39.2621 30.2658 40.2054 26.594C41.1486 22.9223 40.844 19.0411 39.3393 15.5616C37.8347 12.082 35.2156 9.2016 31.8943 7.37391C28.573 5.54622 24.7382 4.87502 20.9936 5.46597C17.249 6.05693 13.8072 7.87647 11.2102 10.6382C8.61321 13.3998 7.00841 16.9468 6.64849 20.7206C6.28857 24.4945 7.19396 28.2808 9.22212 31.4836L6.57384 39.4285L14.5187 36.7802C17.2516 38.5147 20.4227 39.4334 23.6595 39.4285Z" fill="white" stroke="white" stroke-width="2" stroke-linecap="round" stroke-linejoin="round"/>
<circle cx="23.6568" cy="22.3428" r="14.4571" fill="#0B40AC"/>
<path d="M34.29 24.5333H29.6216C29.1142 25.9948 28.1158 27.2266 26.8029 28.0109C25.49 28.7953 23.9471 29.0817 22.4469 28.8196C20.9467 28.5574 19.5857 27.7636 18.6046 26.5784C17.6236 25.3932 17.0854 23.893 17.0854 22.3428C17.0854 20.7926 17.6236 19.2924 18.6046 18.1072C19.5857 16.922 20.9467 16.1282 22.4469 15.866C23.9471 15.6039 25.49 15.8903 26.8029 16.6747C28.1158 17.459 29.1142 18.6908 29.6216 20.1523H40.7426V24.5333H36.7997H34.29ZM23.5357 24.5333C24.1062 24.5333 24.6532 24.3025 25.0566 23.8917C25.46 23.4809 25.6866 22.9237 25.6866 22.3428C25.6866 21.7618 25.46 21.2047 25.0566 20.7939C24.6532 20.3831 24.1062 20.1523 23.5357 20.1523C22.9653 20.1523 22.4182 20.3831 22.0148 20.7939C21.6115 21.2047 21.3849 21.7618 21.3849 22.3428C21.3849 22.9237 21.6115 23.4809 22.0148 23.8917C22.4182 24.3025 22.9653 24.5333 23.5357 24.5333Z" fill="white"/>
<circle cx="23.6571" cy="22.3429" r="13.4571" stroke="white" stroke-width="2" stroke-dasharray="1 1"/>
</svg>
