<svg xmlns="http://www.w3.org/2000/svg" width="166" height="28" fill="none"><path fill="#000" d="M164.499 13.747v-8.09L159.866 2h-27.459v2.548a24 24 0 0 0-2.564-1.88c-.383-.24-1.274-.668-2.854-.668h-9.344v3.347L113.407 2h-7.163l-2.399 13.172-1.811-1.432h-1.024v-3.378h1.243V5.657L97.623 2h-8.237v2.94a35 35 0 0 0-1.86-1.71C86.71 2.414 85.546 2 84.064 2H58.981v2.366c-1.05-.853-1.99-1.506-2.552-1.804-.764-.437-1.728-.659-2.865-.659h-3.192c-1.137 0-2.1.222-2.868.66-.364.209-.68.463-.96.75L44.88 2H17.471v3.347L13.23 2H6.07L3.22 17.642H2v4.704L6.632 26h23.705v-4.705l-1.242-.98V18.18h4.357v4.165L38.083 26h8.407v-5.005c1.586 1.925 3.632 3.323 5.251 4.204.778.424 2.13.801 3.263.801h106.473v-4.705l-1.24-.979v-6.569z"/><path fill="#FFEB18" d="m7.943 13.147 1.092-6.31h.136l1.081 6.31zm4.425-10.11H6.936l-2.85 15.64h-1.05v2.632h4.97v-2.632H6.983l.502-2.9h3.217l.496 2.9h-1.096v2.632h6.212v-2.632h-1.047zm6.141 2.632h1.047v13.008h-1.047v2.632h6.16v-2.632h-1.241v-5.189h3.729v-2.607h-3.729V5.67h2.729v3.385h2.85V3.037H18.509zM31.37 9.054h2.9V5.67h1.46v13.008h-1.24v2.632h6.332v-2.632H39.58V5.67h1.414v3.385h2.85V3.037H31.37zm22.46 7.698q0 1.048-.414 1.548-.411.5-1.339.499h-.218q-.905 0-1.328-.465-.428-.459-.426-1.582V7.568q-.002-1.097.426-1.559.423-.464 1.328-.464h.218q.927.001 1.339.5.415.5.415 1.523zm2.085-13.289q-.914-.524-2.351-.523h-3.193q-1.438-.001-2.35.523-.915.526-1.351 1.46-.44.94-.439 2.206v10.062q0 1.29.439 2.229a3.22 3.22 0 0 0 1.351 1.463q.912.522 2.35.523h3.193q1.437-.001 2.351-.523a3.3 3.3 0 0 0 1.362-1.463q.454-.939.453-2.23V7.13q0-1.268-.453-2.206a3.3 3.3 0 0 0-1.362-1.46m12.801 2.205h1.047v8.852L65.527 3.037h-5.508V5.67h1.073v13.008h-1.073v2.632h5.093v-2.632h-1.048V8.98l4.75 12.329h3.874V5.669h1.022V3.037h-4.994zm15.496 11.205q-.001.95-.402 1.377-.405.426-1.45.426h-1.315v-5.629h1.315q1.045.001 1.45.44.4.439.402 1.364zm-.647-10.792q.401.414.4 1.364v1.413q.001.95-.4 1.389t-1.426.438h-1.094V5.67h1.094q1.025 0 1.426.413m2.911 5.774c-.33-.146-.733-.238-1.17-.303a4.2 4.2 0 0 0 .792-.235q.842-.364 1.23-1.094.39-.731.39-1.78V6.668q.001-1.78-.925-2.705-.925-.924-2.729-.925h-7.941V5.67h1.047v13.008h-1.047v2.632h8.331q1.804-.001 2.729-.938.924-.937.925-2.692v-2.95q0-1.07-.401-1.79c-.267-.48-.68-.84-1.231-1.084m11.644 6.821h-2.776V5.67h1.241V3.037h-6.162V5.67h1.047v13.008h-1.047v2.632h10.573v-6.53h-2.877zm9.998-5.53 1.093-6.31h.134l1.081 6.31zm4.426-10.11h-5.434l-2.85 15.64h-1.047v2.632h4.97v-2.632h-1.023l.502-2.9h3.215l.497 2.9h-1.097v2.632h6.214v-2.632h-1.049zm14.665 13.665q.001 1.099-.403 1.538-.4.436-1.498.437h-1.703V5.67h1.703q1.098 0 1.498.437.404.44.403 1.535zm2.107-13.14q-.888-.525-2.326-.525h-8.307V5.67h1.047v13.008h-1.047v2.632h8.307q1.438-.002 2.326-.524a3.33 3.33 0 0 0 1.34-1.463q.45-.937.45-2.23V7.251q0-1.29-.45-2.23a3.33 3.33 0 0 0-1.34-1.46m11.876 15.116h-2.826V13.22h3.801v-2.655h-3.801V5.669h2.754v3.385h2.85V3.037h-10.526V5.67h1.047v13.008h-1.047v2.632h10.624v-6.286h-2.876zm5.163-15.64v6.017h2.901V5.67h1.461v13.008h-1.242v2.632h6.333v-2.632h-1.242V5.67h1.414v3.385h2.85V3.037z"/></svg>